<svg width="595" height="595" viewBox="0 0 595 595" fill="none" xmlns="http://www.w3.org/2000/svg">
<g clip-path="url(#clip0_3078_122)">
<g filter="url(#filter0_i_3078_122)">
<path d="M194.965 41.3051C259.39 42.7149 275.885 27.6307 296.889 0C316.767 28.6175 342.706 42.5738 380.909 41.3051C452.88 38.9149 471.273 83.033 474.232 121.519C544.438 121.519 554.165 173.679 554.165 199.476C550.781 251.778 566.289 276.307 594.2 295.057C549.936 324.802 554.617 366.389 554.024 389.931C552.191 462.674 498.621 469.157 473.951 472.118C473.951 529.353 433.916 550.359 385.562 550.359C323.815 546.552 305.77 579.587 296.184 594.06C285.188 568.403 252.341 548.011 218.085 550.076C147.035 554.359 121.66 515.538 120.109 470.991C58.4192 470.088 40.1773 427.852 40.1773 391.06C40.1773 327.903 26.08 317.188 0 295.057C43.9836 262.069 36.6529 240.781 40.1773 191.442C43.3654 146.807 76.9713 118.699 121.942 122.365C120.391 71.6142 149.713 43.1377 194.965 41.3051Z" fill="white"/>
</g>
<g filter="url(#filter1_di_3078_122)">
<path d="M216.715 95.4657C267.551 96.5781 280.566 84.6757 297.141 62.873C312.825 85.4542 333.292 96.4668 363.437 95.4657C420.228 93.5796 434.741 128.392 437.077 158.76C492.474 158.76 500.149 199.917 500.149 220.273C497.479 261.542 509.715 280.899 531.741 295.694C496.812 319.165 500.505 351.979 500.037 370.557C498.591 427.955 456.32 433.071 436.854 435.407C436.854 480.57 405.262 497.144 367.108 497.144C318.386 494.14 304.148 520.207 296.583 531.628C287.907 511.383 261.988 495.292 234.958 496.922C178.895 500.301 158.872 469.668 157.648 434.517C108.971 433.806 94.5768 400.478 94.5768 371.446C94.5768 321.611 83.453 313.158 62.874 295.694C97.5802 269.663 91.7959 252.866 94.5768 213.933C97.0925 178.715 123.61 156.535 159.094 159.428C157.871 119.382 181.009 96.9118 216.715 95.4657Z" fill="url(#paint0_radial_3078_122)"/>
</g>
<path d="M174.48 274V248.408H184.867C190.663 248.408 194.238 251.231 194.238 255.672C194.238 257.817 193.184 259.511 191.416 260.489C194.163 261.468 195.668 263.575 195.668 266.435C195.668 271.253 192.244 274 186.147 274H174.48ZM184.717 253.188H180.502V258.796H184.604C186.899 258.796 188.028 257.629 188.028 256.048C188.028 254.279 186.862 253.188 184.717 253.188ZM185.808 263.161H180.502V269.22H185.996C188.254 269.22 189.496 268.016 189.496 266.172C189.496 264.403 188.217 263.161 185.808 263.161ZM198.729 274V253.753H204.487V256.575C205.766 254.167 207.723 253.113 209.793 253.113C210.621 253.113 211.374 253.339 211.788 253.753V258.607C211.111 258.457 210.396 258.382 209.492 258.382C206.03 258.382 204.487 260.339 204.487 263.538V274H198.729ZM219.59 260.452H213.831C214.434 255.898 217.934 253.113 223.127 253.113C228.923 253.113 231.934 256.5 231.934 261.204V268.957C231.934 271.591 232.16 272.946 232.498 274H226.552C226.364 273.323 226.251 272.457 226.213 271.478C224.633 273.661 222.224 274.602 219.815 274.602C215.977 274.602 213.116 272.645 213.116 268.769C213.116 266.021 214.697 263.914 217.896 262.785C220.53 261.919 223.052 261.656 226.176 261.618V261.167C226.176 258.946 225.084 257.779 222.864 257.779C220.907 257.779 219.853 258.871 219.59 260.452ZM218.874 268.392C218.874 269.747 219.891 270.613 221.584 270.613C224.143 270.613 226.176 268.543 226.176 265.758V264.968C220.342 265.081 218.874 266.511 218.874 268.392ZM236.033 274V253.753H241.791V256.425C243.108 254.167 245.178 253.113 247.662 253.113C251.538 253.113 254.436 255.484 254.436 260.489V274H248.678V261.656C248.678 259.097 247.662 257.779 245.554 257.779C243.259 257.779 241.791 259.774 241.791 262.371V274H236.033ZM265.944 274.602C260.75 274.602 257.476 270.538 257.476 263.876C257.476 256.989 260.825 253.113 265.944 253.113C268.089 253.113 269.82 254.016 271.062 255.747V246.903H276.82V274H271.062V271.855C269.82 273.624 268.051 274.602 265.944 274.602ZM267.186 269.935C269.745 269.935 271.062 267.828 271.062 263.876C271.062 259.962 269.707 257.779 267.186 257.779C264.702 257.779 263.385 259.925 263.385 263.876C263.385 267.79 264.739 269.935 267.186 269.935ZM288.119 274V248.408H294.141V274H288.119ZM306.004 274.602C300.81 274.602 297.536 270.538 297.536 263.876C297.536 256.989 300.886 253.113 306.004 253.113C308.149 253.113 309.88 254.016 311.122 255.747V246.903H316.881V274H311.122V271.855C309.88 273.624 308.112 274.602 306.004 274.602ZM307.246 269.935C309.805 269.935 311.122 267.828 311.122 263.876C311.122 259.962 309.768 257.779 307.246 257.779C304.762 257.779 303.445 259.925 303.445 263.876C303.445 267.79 304.8 269.935 307.246 269.935ZM339.828 267.339C338.774 272.005 335.011 274.602 330.043 274.602C323.758 274.602 319.882 270.538 319.882 263.876C319.882 256.989 323.796 253.113 329.817 253.113C335.877 253.113 339.678 257.14 339.678 263.763V265.043H325.753C326.054 268.28 327.559 270.011 330.043 270.011C331.925 270.011 333.205 269.183 333.807 267.339H339.828ZM329.817 257.704C327.672 257.704 326.317 259.097 325.866 261.731H333.731C333.28 259.097 331.925 257.704 329.817 257.704ZM342.836 274V253.753H348.594V256.425C349.911 254.167 351.981 253.113 354.465 253.113C358.341 253.113 361.239 255.484 361.239 260.489V274H355.481V261.656C355.481 259.097 354.465 257.779 352.357 257.779C350.062 257.779 348.594 259.774 348.594 262.371V274H342.836ZM365.897 267.414V258.118H363.413V253.753H365.897V249.048H371.655V253.753H375.795V258.118H371.655V266.699C371.655 268.656 372.182 269.747 374.666 269.747H375.758V274.075C375.118 274.376 373.838 274.602 372.295 274.602C367.967 274.602 365.897 272.118 365.897 267.414ZM378.376 251.72V246.903H384.134V251.72H378.376ZM378.376 274V253.753H384.134V274H378.376ZM388.757 267.414V258.118H386.274V253.753H388.757V249.048H394.516V253.753H398.655V258.118H394.516V266.699C394.516 268.656 395.042 269.747 397.526 269.747H398.618V274.075C397.978 274.376 396.698 274.602 395.155 274.602C390.827 274.602 388.757 272.118 388.757 267.414ZM403.983 282.919C402.854 282.919 401.687 282.581 401.16 282.355V277.989H402.327C404.359 277.989 405.601 277.538 406.881 274.113L407.295 273.097L399.467 253.753H405.601L409.478 264.516L410.23 267.564L411.058 264.516L414.747 253.753H420.618L412.037 275.581C409.892 281.113 407.784 282.919 403.983 282.919Z" fill="url(#paint1_linear_3078_122)"/>
<path d="M174.156 337V285.872H193.781C209.946 285.872 220.022 295.571 220.022 311.511C220.022 327.451 209.946 337 193.781 337H174.156ZM193.781 327.225C202.578 327.225 207.691 321.436 207.691 311.511C207.691 301.511 202.578 295.646 193.781 295.646H186.187V327.225H193.781ZM264.982 323.692C262.876 333.015 255.357 338.203 245.433 338.203C232.876 338.203 225.132 330.083 225.132 316.774C225.132 303.015 232.951 295.27 244.981 295.27C257.087 295.27 264.681 303.315 264.681 316.549V319.105H236.861C237.462 325.571 240.47 329.03 245.433 329.03C249.192 329.03 251.748 327.376 252.951 323.692H264.982ZM244.981 304.443C240.696 304.443 237.989 307.225 237.087 312.488H252.801C251.899 307.225 249.192 304.443 244.981 304.443ZM280.99 307.752C280.99 315.722 306.028 308.729 306.028 324.744C306.028 332.714 298.66 338.203 288.133 338.203C277.908 338.203 270.539 333.692 269.035 323.692H280.539C281.066 327.451 284.148 329.481 288.434 329.481C292.494 329.481 294.524 327.902 294.524 325.421C294.524 317.601 270.013 324.594 270.013 308.353C270.013 301.586 275.502 295.27 286.329 295.27C296.028 295.27 303.397 299.706 304.524 309.932H293.096C292.419 305.797 290.013 304.067 285.953 304.067C282.945 304.067 280.99 305.571 280.99 307.752ZM311.815 292.488V282.864H323.319V292.488H311.815ZM311.815 337V296.548H323.319V337H311.815ZM345.941 337.075C335.715 337.075 329.324 329.105 329.324 316.248C329.324 302.789 335.865 295.27 345.941 295.27C350.452 295.27 353.986 297 356.467 300.308V296.548H367.971V338.353C367.971 349.181 360.302 354.82 349.7 354.82C339.399 354.82 331.955 350.308 330.527 340.459H342.031C342.482 344.068 345.565 346.023 349.55 346.023C353.685 346.023 356.467 344.143 356.467 338.504V331.737C353.911 335.271 350.302 337.075 345.941 337.075ZM348.723 327.752C353.835 327.752 356.467 323.692 356.467 316.173C356.467 308.729 353.76 304.594 348.723 304.594C343.76 304.594 341.128 308.654 341.128 316.248C341.128 323.616 343.76 327.752 348.723 327.752ZM375.77 337V296.548H387.274V301.887C389.905 297.375 394.041 295.27 399.003 295.27C406.748 295.27 412.537 300.007 412.537 310.007V337H401.033V312.338C401.033 307.225 399.003 304.594 394.793 304.594C390.206 304.594 387.274 308.579 387.274 313.767V337H375.77Z" fill="url(#paint2_linear_3078_122)"/>
</g>
<defs>
<filter id="filter0_i_3078_122" x="0" y="0" width="594.2" height="594.06" filterUnits="userSpaceOnUse" color-interpolation-filters="sRGB">
<feFlood flood-opacity="0" result="BackgroundImageFix"/>
<feBlend mode="normal" in="SourceGraphic" in2="BackgroundImageFix" result="shape"/>
<feColorMatrix in="SourceAlpha" type="matrix" values="0 0 0 0 0 0 0 0 0 0 0 0 0 0 0 0 0 0 127 0" result="hardAlpha"/>
<feOffset/>
<feGaussianBlur stdDeviation="35.2432"/>
<feComposite in2="hardAlpha" operator="arithmetic" k2="-1" k3="1"/>
<feColorMatrix type="matrix" values="0 0 0 0 0.364706 0 0 0 0 0.658824 0 0 0 0 0.478431 0 0 0 0.66 0"/>
<feBlend mode="normal" in2="shape" result="effect1_innerShadow_3078_122"/>
</filter>
<filter id="filter1_di_3078_122" x="62.874" y="62.873" width="468.866" height="468.755" filterUnits="userSpaceOnUse" color-interpolation-filters="sRGB">
<feFlood flood-opacity="0" result="BackgroundImageFix"/>
<feColorMatrix in="SourceAlpha" type="matrix" values="0 0 0 0 0 0 0 0 0 0 0 0 0 0 0 0 0 0 127 0" result="hardAlpha"/>
<feOffset/>
<feComposite in2="hardAlpha" operator="out"/>
<feColorMatrix type="matrix" values="0 0 0 0 1 0 0 0 0 1 0 0 0 0 1 0 0 0 0.96 0"/>
<feBlend mode="normal" in2="BackgroundImageFix" result="effect1_dropShadow_3078_122"/>
<feBlend mode="normal" in="SourceGraphic" in2="effect1_dropShadow_3078_122" result="shape"/>
<feColorMatrix in="SourceAlpha" type="matrix" values="0 0 0 0 0 0 0 0 0 0 0 0 0 0 0 0 0 0 127 0" result="hardAlpha"/>
<feOffset/>
<feGaussianBlur stdDeviation="27.8093"/>
<feComposite in2="hardAlpha" operator="arithmetic" k2="-1" k3="1"/>
<feColorMatrix type="matrix" values="0 0 0 0 0.364706 0 0 0 0 0.658824 0 0 0 0 0.478431 0 0 0 0.74 0"/>
<feBlend mode="normal" in2="shape" result="effect2_innerShadow_3078_122"/>
</filter>
<radialGradient id="paint0_radial_3078_122" cx="0" cy="0" r="1" gradientUnits="userSpaceOnUse" gradientTransform="translate(23506.2 23500.6) scale(23443.3 23437.8)">
<stop stop-color="white"/>
<stop offset="0.55" stop-color="white"/>
<stop offset="1" stop-color="white"/>
</radialGradient>
<linearGradient id="paint1_linear_3078_122" x1="165" y1="268.06" x2="419.662" y2="242.32" gradientUnits="userSpaceOnUse">
<stop stop-color="#173116"/>
<stop offset="1" stop-color="#4E9C4B"/>
</linearGradient>
<linearGradient id="paint2_linear_3078_122" x1="165" y1="327.631" x2="406.332" y2="256.315" gradientUnits="userSpaceOnUse">
<stop offset="0.000575932" stop-color="#32745C"/>
<stop offset="1" stop-color="#62A29A"/>
</linearGradient>
<clipPath id="clip0_3078_122">
<rect width="595" height="595" fill="white"/>
</clipPath>
</defs>
</svg>
