<svg width="131" height="23" viewBox="0 0 131 23" fill="none" xmlns="http://www.w3.org/2000/svg">
<path d="M-0.000113427 21.9185V3.95745e-05H13.1424V2.35456H2.65407V9.76059H12.1578V12.1151H2.65407V21.9185H-0.000113427ZM22.8173 22.2609C21.3332 22.2609 20.0311 21.9078 18.9109 21.2014C17.7979 20.495 16.9274 19.5069 16.2996 18.2368C15.6788 16.9668 15.3685 15.4828 15.3685 13.7847C15.3685 12.0723 15.6788 10.5775 16.2996 9.30038C16.9274 8.02324 17.7979 7.03149 18.9109 6.32513C20.0311 5.61878 21.3332 5.2656 22.8173 5.2656C24.3014 5.2656 25.5999 5.61878 26.713 6.32513C27.8331 7.03149 28.7036 8.02324 29.3243 9.30038C29.9522 10.5775 30.2661 12.0723 30.2661 13.7847C30.2661 15.4828 29.9522 16.9668 29.3243 18.2368C28.7036 19.5069 27.8331 20.495 26.713 21.2014C25.5999 21.9078 24.3014 22.2609 22.8173 22.2609ZM22.8173 19.992C23.9446 19.992 24.8722 19.7031 25.5999 19.1251C26.3277 18.5472 26.8664 17.7873 27.216 16.8455C27.5656 15.9037 27.7404 14.8834 27.7404 13.7847C27.7404 12.6859 27.5656 11.662 27.216 10.7131C26.8664 9.76415 26.3277 8.99715 25.5999 8.41209C24.8722 7.82703 23.9446 7.5345 22.8173 7.5345C21.69 7.5345 20.7625 7.82703 20.0347 8.41209C19.3069 8.99715 18.7682 9.76415 18.4186 10.7131C18.069 11.662 17.8942 12.6859 17.8942 13.7847C17.8942 14.8834 18.069 15.9037 18.4186 16.8455C18.7682 17.7873 19.3069 18.5472 20.0347 19.1251C20.7625 19.7031 21.69 19.992 22.8173 19.992ZM36.6474 3.95745e-05V21.9185H34.1217V3.95745e-05H36.6474ZM43.7993 3.95745e-05V21.9185H41.2735V3.95745e-05H43.7993ZM55.1036 22.2609C53.6196 22.2609 52.3174 21.9078 51.1973 21.2014C50.0842 20.495 49.2138 19.5069 48.5859 18.2368C47.9652 16.9668 47.6548 15.4828 47.6548 13.7847C47.6548 12.0723 47.9652 10.5775 48.5859 9.30038C49.2138 8.02324 50.0842 7.03149 51.1973 6.32513C52.3174 5.61878 53.6196 5.2656 55.1036 5.2656C56.5877 5.2656 57.8862 5.61878 58.9993 6.32513C60.1195 7.03149 60.9899 8.02324 61.6107 9.30038C62.2385 10.5775 62.5525 12.0723 62.5525 13.7847C62.5525 15.4828 62.2385 16.9668 61.6107 18.2368C60.9899 19.5069 60.1195 20.495 58.9993 21.2014C57.8862 21.9078 56.5877 22.2609 55.1036 22.2609ZM55.1036 19.992C56.2309 19.992 57.1585 19.7031 57.8862 19.1251C58.614 18.5472 59.1527 17.7873 59.5023 16.8455C59.8519 15.9037 60.0267 14.8834 60.0267 13.7847C60.0267 12.6859 59.8519 11.662 59.5023 10.7131C59.1527 9.76415 58.614 8.99715 57.8862 8.41209C57.1585 7.82703 56.2309 7.5345 55.1036 7.5345C53.9763 7.5345 53.0488 7.82703 52.321 8.41209C51.5933 8.99715 51.0546 9.76415 50.705 10.7131C50.3553 11.662 50.1805 12.6859 50.1805 13.7847C50.1805 14.8834 50.3553 15.9037 50.705 16.8455C51.0546 17.7873 51.5933 18.5472 52.321 19.1251C53.0488 19.7031 53.9763 19.992 55.1036 19.992ZM69.5732 21.9185L64.5645 5.47964H67.2187L70.7719 18.0656H70.9431L74.4535 5.47964H77.1505L80.618 18.0228H80.7893L84.3425 5.47964H86.9966L81.9879 21.9185H79.505L75.909 9.28968H75.6521L72.0562 21.9185H69.5732ZM96.6689 22.2609C95.0849 22.2609 93.7186 21.9113 92.5699 21.2121C91.4283 20.5057 90.5471 19.5211 89.9264 18.2583C89.3128 16.9882 89.006 15.5113 89.006 13.8275C89.006 12.1436 89.3128 10.6596 89.9264 9.3753C90.5471 8.08388 91.4105 7.07786 92.5164 6.35724C93.6294 5.62948 94.928 5.2656 96.412 5.2656C97.2682 5.2656 98.1137 5.4083 98.9485 5.69369C99.7833 5.97909 100.543 6.44286 101.228 7.085C101.913 7.72 102.459 8.56192 102.866 9.61075C103.272 10.6596 103.476 11.951 103.476 13.485V14.5552H90.804V12.372H100.907C100.907 11.4444 100.722 10.6168 100.35 9.88901C99.9866 9.16125 99.4658 8.58689 98.7879 8.16593C98.1173 7.74498 97.3253 7.5345 96.412 7.5345C95.406 7.5345 94.5355 7.78422 93.8007 8.28366C93.0729 8.77597 92.5128 9.41811 92.1204 10.2101C91.728 11.0021 91.5318 11.8511 91.5318 12.7572V14.2128C91.5318 15.4542 91.7458 16.5066 92.1739 17.37C92.6091 18.2261 93.212 18.879 93.9826 19.3285C94.7532 19.7709 95.6486 19.992 96.6689 19.992C97.3324 19.992 97.9318 19.8993 98.4669 19.7138C99.0091 19.5211 99.4765 19.2357 99.8689 18.8576C100.261 18.4723 100.565 17.9943 100.779 17.4235L103.219 18.1084C102.962 18.9361 102.53 19.6638 101.924 20.2917C101.317 20.9124 100.568 21.3976 99.6762 21.7472C98.7844 22.0897 97.7819 22.2609 96.6689 22.2609ZM107.318 21.9185V5.47964H109.758V7.96259H109.929C110.229 7.14921 110.771 6.48923 111.556 5.98265C112.341 5.47608 113.225 5.22279 114.21 5.22279C114.396 5.22279 114.627 5.22635 114.906 5.23349C115.184 5.24062 115.394 5.25133 115.537 5.2656V7.83416C115.452 7.81276 115.255 7.78065 114.948 7.73784C114.649 7.6879 114.331 7.66292 113.996 7.66292C113.197 7.66292 112.483 7.83059 111.856 8.16593C111.235 8.49414 110.742 8.95077 110.379 9.53584C110.022 10.1138 109.843 10.7737 109.843 11.5158V21.9185H107.318ZM130.175 9.16125L127.906 9.80339C127.764 9.42524 127.553 9.0578 127.275 8.70105C127.004 8.33717 126.633 8.03751 126.162 7.80205C125.691 7.5666 125.088 7.44888 124.353 7.44888C123.347 7.44888 122.509 7.68076 121.838 8.14453C121.175 8.60116 120.843 9.18266 120.843 9.88901C120.843 10.5169 121.071 11.0128 121.528 11.3766C121.984 11.7405 122.698 12.0438 123.668 12.2863L126.108 12.8857C127.578 13.2424 128.673 13.7882 129.394 14.5231C130.115 15.2509 130.475 16.1891 130.475 17.3379C130.475 18.2797 130.204 19.1216 129.662 19.8636C129.126 20.6056 128.377 21.1907 127.414 21.6188C126.451 22.0469 125.331 22.2609 124.054 22.2609C122.377 22.2609 120.989 21.8971 119.89 21.1693C118.792 20.4415 118.096 19.3784 117.803 17.98L120.201 17.3807C120.429 18.2654 120.861 18.9289 121.496 19.3713C122.138 19.8137 122.976 20.0348 124.011 20.0348C125.188 20.0348 126.123 19.7851 126.815 19.2857C127.514 18.7791 127.864 18.1726 127.864 17.4663C127.864 16.8955 127.664 16.4174 127.264 16.0322C126.865 15.6397 126.251 15.3472 125.423 15.1546L122.684 14.5124C121.178 14.1557 120.072 13.6027 119.366 12.8536C118.667 12.0973 118.317 11.1519 118.317 10.0174C118.317 9.0899 118.577 8.26939 119.098 7.5559C119.626 6.84241 120.343 6.28232 121.25 5.87563C122.163 5.46894 123.197 5.2656 124.353 5.2656C125.98 5.2656 127.257 5.62234 128.185 6.33583C129.119 7.04932 129.783 7.99113 130.175 9.16125Z" fill="#0D0D0D"/>
</svg>
