<svg width="842" height="421" viewBox="0 0 842 421" fill="none" xmlns="http://www.w3.org/2000/svg">
<g filter="url(#filter0_i_3044_161)">
<path d="M841.051 420.525C841.051 365.301 830.174 310.618 809.04 259.597C787.907 208.577 756.931 162.218 717.882 123.169C678.832 84.1196 632.474 53.144 581.454 32.0106C530.433 10.8772 475.75 -2.41393e-06 420.525 0C365.301 2.41393e-06 310.618 10.8772 259.597 32.0106C208.577 53.144 162.218 84.1197 123.169 123.169C84.1196 162.218 53.144 208.577 32.0106 259.597C10.8772 310.618 -4.82785e-06 365.301 0 420.525L420.525 420.525H841.051Z" fill="white"/>
</g>
<defs>
<filter id="filter0_i_3044_161" x="0" y="0" width="841.051" height="420.525" filterUnits="userSpaceOnUse" color-interpolation-filters="sRGB">
<feFlood flood-opacity="0" result="BackgroundImageFix"/>
<feBlend mode="normal" in="SourceGraphic" in2="BackgroundImageFix" result="shape"/>
<feColorMatrix in="SourceAlpha" type="matrix" values="0 0 0 0 0 0 0 0 0 0 0 0 0 0 0 0 0 0 127 0" result="hardAlpha"/>
<feOffset/>
<feGaussianBlur stdDeviation="26.1811"/>
<feComposite in2="hardAlpha" operator="arithmetic" k2="-1" k3="1"/>
<feColorMatrix type="matrix" values="0 0 0 0 0 0 0 0 0 0 0 0 0 0 0 0 0 0 0.1 0"/>
<feBlend mode="normal" in2="shape" result="effect1_innerShadow_3044_161"/>
</filter>
</defs>
</svg>
