<svg width="623" height="312" viewBox="0 0 623 312" fill="none" xmlns="http://www.w3.org/2000/svg">
<g filter="url(#filter0_i_3044_160)">
<path d="M623 311.5C623 270.593 614.943 230.087 599.288 192.294C583.634 154.501 560.689 120.162 531.764 91.2362C502.838 62.3108 468.499 39.3659 430.706 23.7115C392.913 8.05718 352.407 -1.78809e-06 311.5 0C270.593 1.78809e-06 230.087 8.05719 192.294 23.7115C154.501 39.3659 120.162 62.3108 91.2362 91.2363C62.3108 120.162 39.3659 154.501 23.7115 192.294C8.05718 230.087 -3.57618e-06 270.593 0 311.5L311.5 311.5H623Z" fill="white"/>
</g>
<defs>
<filter id="filter0_i_3044_160" x="0" y="0" width="623" height="311.5" filterUnits="userSpaceOnUse" color-interpolation-filters="sRGB">
<feFlood flood-opacity="0" result="BackgroundImageFix"/>
<feBlend mode="normal" in="SourceGraphic" in2="BackgroundImageFix" result="shape"/>
<feColorMatrix in="SourceAlpha" type="matrix" values="0 0 0 0 0 0 0 0 0 0 0 0 0 0 0 0 0 0 127 0" result="hardAlpha"/>
<feOffset/>
<feGaussianBlur stdDeviation="19.3934"/>
<feComposite in2="hardAlpha" operator="arithmetic" k2="-1" k3="1"/>
<feColorMatrix type="matrix" values="0 0 0 0 0 0 0 0 0 0 0 0 0 0 0 0 0 0 0.1 0"/>
<feBlend mode="normal" in2="shape" result="effect1_innerShadow_3044_160"/>
</filter>
</defs>
</svg>
