<svg width="24" height="25" viewBox="0 0 24 25" fill="none" xmlns="http://www.w3.org/2000/svg">
<path d="M12.034 24.034L16.3173 14.0397L19.0708 21.7564L19.4448 21.4504L18.3909 13.3938L22.4703 17.983L22.7762 17.6431L19.7167 11.898L24 13.3938V12.9178L20.2266 10.1303L20.2606 9.99433L23.762 9.11048V8.66856L19.7507 7.95467L22.0623 4.92918L21.7564 4.62323L18.3909 6.22096L18.7989 1.90368L18.5269 1.63173L16.4193 5.09915L14.0397 0L13.7337 0.0339943L14.2096 4.92918L8.3966 0.407932L7.92068 0.509915L12.272 6.017L3.50142 3.22946L3.16147 3.6034L10.8782 8.15864L0.0679887 9.07649L0 9.72238L11.2861 11.0142L1.86969 18.7989L2.34561 19.3428L13.5297 13.3938L11.3881 24.034H12.034Z" fill="#17402A"/>
</svg>
