<svg width="312" height="286" viewBox="0 0 312 286" fill="none" xmlns="http://www.w3.org/2000/svg">
<path d="M106.172 35.8951C109.188 27.979 113.335 20.6912 119.492 14.7855C144.119 -9.21396 184.831 -3.18267 201.542 26.9738C214.107 49.8424 227.427 72.2085 240.369 94.8258C261.981 132.396 283.844 169.966 305.205 207.661C323.173 239.2 303.697 279.031 268.012 284.434C246.149 287.701 225.667 277.649 214.359 258.048C195.385 225.001 176.286 191.955 157.313 159.034C156.936 158.28 156.433 157.652 155.931 157.023C153.92 155.39 153.041 153.003 151.784 150.867C143.365 136.04 134.695 121.338 126.277 106.637C120.874 97.0875 115.219 87.6636 109.816 78.1141C104.916 69.5698 102.654 60.2715 102.906 50.4707C103.283 45.4446 103.911 40.4185 106.172 35.8951Z" fill="#3C8BD9"/>
<path d="M106.174 35.895C105.043 40.4185 104.038 44.942 103.787 49.7167C103.41 60.2715 106.048 70.0723 111.326 79.2449C125.148 102.993 138.969 126.867 152.665 150.741C153.922 152.877 154.927 155.013 156.184 157.023C148.644 170.091 141.105 183.033 133.441 196.101C122.886 214.321 112.331 232.666 101.651 250.885C101.148 250.885 101.022 250.634 100.897 250.257C100.771 249.252 101.148 248.372 101.399 247.367C106.551 228.519 102.279 211.808 89.3368 197.483C81.4207 188.813 71.3685 183.913 59.8086 182.279C44.7304 180.143 31.4113 184.039 19.4743 193.462C17.3382 195.096 15.9561 197.483 13.443 198.74C12.9404 198.74 12.6891 198.489 12.5635 198.112C18.5948 187.682 24.5004 177.253 30.5317 166.824C55.4108 123.6 80.2898 80.3758 105.295 37.2772C105.546 36.7746 105.923 36.3976 106.174 35.895Z" fill="#FABC04"/>
<path d="M13.065 198.489C15.4524 196.352 17.7141 194.091 20.2272 192.08C50.7606 167.955 96.6235 185.421 103.283 223.619C104.917 232.792 104.037 241.587 101.273 250.383C101.147 251.137 101.021 251.765 100.77 252.519C99.6392 254.529 98.6339 256.665 97.3774 258.676C86.1944 277.147 69.734 286.319 48.1219 284.937C23.3685 283.178 3.89243 264.581 0.499826 239.954C-1.13365 228.017 1.25374 216.834 7.41068 206.53C8.6672 204.269 10.175 202.258 11.5572 199.996C12.1855 199.494 11.9341 198.489 13.065 198.489Z" fill="#34A852"/>
<path d="M13.0658 198.489C12.5632 198.991 12.5632 199.871 11.6836 199.996C11.5579 199.117 12.0605 198.614 12.5632 197.986L13.0658 198.489Z" fill="#FABC04"/>
<path d="M100.771 252.519C100.268 251.639 100.771 251.011 101.273 250.383C101.399 250.508 101.65 250.76 101.776 250.885L100.771 252.519Z" fill="#E1C025"/>
</svg>
