<svg width="104" height="104" viewBox="0 0 104 104" fill="none" xmlns="http://www.w3.org/2000/svg">
<path d="M41.1724 10.4847C23.9889 14.8635 18.9679 16.1618 18.0117 16.4918C14.5601 17.6835 12.5072 18.7978 10.42 20.5972C8.81076 21.9815 7.62802 23.4122 6.57286 25.2641C4.65213 28.6405 3.91926 32.379 4.35653 36.4894C4.5684 38.485 4.58738 38.8982 7.07599 48.7331C7.90469 52.0116 9.00997 56.3226 10.484 62.1072C14.8592 79.2768 16.1575 84.2924 16.4882 85.2464C17.6475 88.6052 18.7358 90.6269 20.4771 92.698C23.8068 96.6633 28.8309 98.9968 34.0538 99.0144C35.8618 99.0188 37.797 98.7819 40.2319 98.2828C41.2624 98.0674 51.6596 95.4517 62.055 92.8027C72.4505 90.1537 82.8427 87.4921 83.8238 87.1882C86.576 86.3473 88.1382 85.7179 89.8089 84.8C94.4165 82.2708 97.6482 77.8875 98.7023 72.7376C99.2325 70.1484 99.228 67.7629 98.6557 64.4453C98.5307 63.722 95.6734 52.4109 92.7964 41.1209C89.919 29.829 87.0182 18.5511 86.7818 17.8562C85.6801 14.6176 84.5473 12.5398 82.7952 10.485C81.3588 8.80346 79.942 7.63539 78.0421 6.55604C74.6564 4.64915 70.923 3.91498 66.8089 4.35385C64.8154 4.56587 64.4114 4.58117 54.5687 7.07108L41.1724 10.4847Z" fill="url(#paint0_radial_3034_128)"/>
<path d="M41.1724 10.4847C23.9889 14.8635 18.9679 16.1618 18.0117 16.4918C14.5601 17.6835 12.5072 18.7978 10.42 20.5972C8.81076 21.9815 7.62802 23.4122 6.57286 25.2641C4.65213 28.6405 3.91926 32.379 4.35653 36.4894C4.5684 38.485 4.58738 38.8982 7.07599 48.7331C7.90469 52.0116 9.00997 56.3226 10.484 62.1072C14.8592 79.2768 16.1575 84.2924 16.4882 85.2464C17.6475 88.6052 18.7358 90.6269 20.4771 92.698C23.8068 96.6633 28.8309 98.9968 34.0538 99.0144C35.8618 99.0188 37.797 98.7819 40.2319 98.2828C41.2624 98.0674 51.6596 95.4517 62.055 92.8027C72.4505 90.1537 82.8427 87.4921 83.8238 87.1882C86.576 86.3473 88.1382 85.7179 89.8089 84.8C94.4165 82.2708 97.6482 77.8875 98.7023 72.7376C99.2325 70.1484 99.228 67.7629 98.6557 64.4453C98.5307 63.722 95.6734 52.4109 92.7964 41.1209C89.919 29.829 87.0182 18.5511 86.7818 17.8562C85.6801 14.6176 84.5473 12.5398 82.7952 10.485C81.3588 8.80346 79.942 7.63539 78.0421 6.55604C74.6564 4.64915 70.923 3.91498 66.8089 4.35385C64.8154 4.56587 64.4114 4.58117 54.5687 7.07108L41.1724 10.4847Z" fill="url(#paint1_radial_3034_128)"/>
<path d="M43.896 21.2523C35.643 23.3553 34.6164 23.6554 31.4126 24.6289C28.2152 25.6014 26.1375 26.6763 24.3968 27.9201C22.5959 29.2056 21.165 30.6759 19.9065 32.7961C18.6465 34.9159 18.0403 36.8759 17.7707 39.0724C17.5099 41.1972 17.5599 43.5368 18.2384 46.8077C18.9194 50.0861 19.1455 51.1322 21.2485 59.3852C23.3516 67.6383 23.6514 68.6615 24.6243 71.8655C25.5974 75.0627 26.6723 77.1404 27.9155 78.8813C29.2017 80.6821 30.672 82.1129 32.7921 83.3714C34.9113 84.6315 36.872 85.2403 39.0672 85.5075C41.1922 85.7663 43.5315 85.7156 46.8038 85.0395C50.0828 84.3611 51.1271 84.1334 59.3795 82.0305C67.6332 79.9273 68.6566 79.6281 71.8605 78.6546C75.0578 77.6821 77.1381 76.6065 78.8801 75.3624C80.6803 74.077 82.108 72.6048 83.3657 70.4842C84.6257 68.3644 85.2319 66.4044 85.5015 64.2079C85.756 62.0847 85.706 59.7451 85.0339 56.4726C84.3535 53.194 84.1282 52.1511 82.0251 43.8981C79.9221 35.645 79.6202 34.619 78.6486 31.4146C77.6723 28.2182 76.5967 26.1406 75.3573 24.3988C74.0693 22.5986 72.599 21.1677 70.4782 19.9093C68.3571 18.6497 66.4022 18.0422 64.204 17.7764C62.0752 17.5186 59.7352 17.5694 56.4623 18.2457C53.1833 18.9242 52.1421 19.151 43.8865 21.2547L43.896 21.2523ZM42.5654 27.4233C43.3742 27.2158 44.2773 26.987 45.2915 26.7286C53.4053 24.661 54.3744 24.4451 57.6156 23.7742C60.613 23.1547 62.3472 23.24 63.5244 23.383C65.0829 23.5724 66.2617 23.9732 67.5957 24.7659C68.9303 25.5585 69.8469 26.4037 70.7603 27.6812C71.4489 28.6451 72.3544 30.1268 73.2442 33.0554C74.2062 36.2217 74.483 37.176 76.5496 45.2859C78.6162 53.3959 78.8298 54.3663 79.5005 57.6068C80.12 60.6043 80.0347 62.3385 79.8914 63.5144C79.7019 65.0729 79.2996 66.2508 78.5068 67.5848C77.7143 68.9194 76.8722 69.8351 75.5938 70.7475C74.6304 71.4379 73.1469 72.3419 70.2185 73.2323C67.0522 74.1943 66.0979 74.4711 57.9842 76.5387C49.8698 78.6064 48.9 78.8198 45.6594 79.4905C42.6617 80.1088 40.9275 80.0234 39.7497 79.8806C38.1912 79.6912 37.0104 79.2909 35.6758 78.4983C34.3412 77.7058 33.4253 76.8631 32.5117 75.585C31.8231 74.6211 30.9176 73.1393 30.0278 70.2108C29.0659 67.0444 28.7915 66.0896 26.7236 57.9745C24.6558 49.8595 24.441 48.8949 23.7703 45.6543C23.1507 42.6569 23.236 40.9226 23.379 39.7455C23.5685 38.187 23.97 37.0059 24.7626 35.6713C25.5552 34.3366 26.4003 33.4201 27.6778 32.5067C28.6425 31.8159 30.1254 30.9121 33.0536 30.021C35.8247 29.18 36.9014 28.8652 42.5635 27.4157L42.5654 27.4233ZM62.7985 27.6409C60.7852 28.1539 59.5676 30.2016 60.0807 32.2155C60.5938 34.2287 62.6434 35.4459 64.6566 34.9329C66.6699 34.4198 67.887 32.3702 67.374 30.357C66.861 28.3437 64.8114 27.1266 62.7981 27.6396L62.7985 27.6409ZM47.663 36.0351C39.0447 38.2312 33.8377 46.9993 36.0339 55.6176C38.23 64.2359 46.9972 69.4397 55.6156 67.2436C64.2339 65.0474 69.4391 56.2832 67.243 47.6649C65.0468 39.0465 56.2813 33.839 47.663 36.0351ZM49.0585 41.5114C54.6525 40.0859 60.3436 43.465 61.7692 49.0597C63.1947 54.6537 59.8149 60.345 54.2209 61.7705C48.6262 63.1961 42.9356 59.8162 41.5101 54.2221C40.0845 48.6275 43.4638 42.937 49.0585 41.5114Z" fill="white"/>
<defs>
<radialGradient id="paint0_radial_3034_128" cx="0" cy="0" r="1" gradientUnits="userSpaceOnUse" gradientTransform="translate(44.4516 104.038) rotate(-104.296) scale(84.1673 78.3036)">
<stop stop-color="#FFDD55"/>
<stop offset="0.1" stop-color="#FFDD55"/>
<stop offset="0.5" stop-color="#FF543E"/>
<stop offset="1" stop-color="#C837AB"/>
</radialGradient>
<radialGradient id="paint1_radial_3034_128" cx="0" cy="0" r="1" gradientTransform="matrix(16.2674 33.9249 -139.875 67.0723 -12.278 30.4184)" gradientUnits="userSpaceOnUse">
<stop stop-color="#3771C8"/>
<stop offset="0.128" stop-color="#3771C8"/>
<stop offset="1" stop-color="#6600FF" stop-opacity="0"/>
</radialGradient>
</defs>
</svg>
