<svg width="91" height="92" viewBox="0 0 91 92" fill="none" xmlns="http://www.w3.org/2000/svg">
<path d="M15.7635 5.32468C16.4351 2.38468 19.4236 0.558097 22.4383 1.24671L85.3861 15.6252C88.4007 16.3138 90.2999 19.2568 89.6284 22.1968L75.0818 85.8807C74.41 88.8217 71.4216 90.6473 68.407 89.9587L5.4591 75.5802C2.44441 74.8916 0.545139 71.9496 1.21692 69.0086L15.7635 5.32468Z" fill="#006699"/>
<path fill-rule="evenodd" clip-rule="evenodd" d="M25.1566 67.3384L32.8237 33.7727L21.667 31.2243L14 64.7901L25.1566 67.3384ZM28.2921 27.9157C32.1826 28.8043 35.1929 26.78 35.9287 23.5589C36.6085 20.2487 34.8319 17.2062 31.0151 16.3344C27.1988 15.4627 24.1311 17.3987 23.3788 20.6923C22.6431 23.9134 24.4753 27.0439 28.2194 27.8991L28.2921 27.9157Z" fill="white"/>
<path fill-rule="evenodd" clip-rule="evenodd" d="M31.3307 68.7487L42.4872 71.297L46.7688 52.5525C46.998 51.5493 47.2994 50.5637 47.7578 49.9139C49.0221 48.0937 51.332 46.4371 54.4141 47.1411C58.4511 48.0633 59.363 51.5102 58.3323 56.0225L54.2306 73.9794L65.3862 76.5276L69.7824 57.2815C72.1374 46.9716 67.7291 40.917 60.3889 39.2403C54.3702 37.8656 50.9596 40.6261 48.9681 42.5822L49.0427 42.5993L50.1546 37.7314L38.9981 35.183C38.425 38.366 31.3307 68.7487 31.3307 68.7487Z" fill="white"/>
</svg>
