<svg width="388" height="258" viewBox="0 0 388 258" fill="none" xmlns="http://www.w3.org/2000/svg">
<path d="M41.8709 169.802C41.8709 184.604 45.1198 195.968 49.3662 202.844C54.9337 211.849 63.2378 215.664 71.7036 215.664C82.623 215.664 92.6122 212.954 111.863 186.33C127.284 164.99 145.456 135.036 157.683 116.257L178.39 84.4429C192.773 62.3481 209.422 37.7863 228.511 21.1377C244.094 7.54917 260.905 0 277.823 0C306.227 0 333.282 16.4599 353.989 47.3306C376.65 81.1401 387.65 123.726 387.65 167.673C387.65 193.798 382.5 212.994 373.738 228.16C365.272 242.827 348.772 257.481 321.015 257.481V215.664C344.781 215.664 350.713 193.825 350.713 168.832C350.713 133.216 342.409 93.6906 324.116 65.4486C311.134 45.4164 294.31 33.1759 275.801 33.1759C255.782 33.1759 239.673 48.2743 221.568 75.1951C211.943 89.4981 202.062 106.929 190.967 126.597L178.754 148.233C154.219 191.735 148.004 201.644 135.737 217.996C114.235 246.629 95.8745 257.481 71.7036 257.481C43.0303 257.481 24.8988 245.065 13.6694 226.354C4.50254 211.107 0 191.102 0 168.306L41.8709 169.802Z" fill="#0081FB"/>
<path d="M33.0146 50.2829C52.2111 20.6928 79.9139 0 111.688 0C130.089 0 148.382 5.44619 167.484 21.0433C188.379 38.0964 210.649 66.1766 238.433 112.456L248.395 129.064C272.445 169.128 286.128 189.74 294.135 199.46C304.434 211.943 311.646 215.664 321.016 215.664C344.782 215.664 350.713 193.825 350.713 168.832L387.65 167.673C387.65 193.798 382.501 212.994 373.738 228.16C365.272 242.827 348.772 257.481 321.016 257.481C303.76 257.481 288.473 253.733 271.568 237.785C258.573 225.545 243.38 203.801 231.693 184.254L196.926 126.179C179.482 97.0338 163.48 75.303 154.219 65.4621C144.257 54.8798 131.45 42.1001 111.014 42.1001C94.473 42.1001 80.4261 53.707 68.671 71.461L33.0146 50.2829Z" fill="url(#paint0_linear_3060_406)"/>
<path d="M111.013 42.1001C94.4725 42.1001 80.4256 53.707 68.6705 71.461C52.0488 96.5485 41.8709 133.917 41.8709 169.802C41.8709 184.604 45.1198 195.968 49.3662 202.844L13.6694 226.354C4.50254 211.107 0 191.102 0 168.306C0 126.853 11.3777 83.6475 33.0141 50.2829C52.2106 20.6928 79.9134 0 111.687 0L111.013 42.1001Z" fill="url(#paint1_linear_3060_406)"/>
<defs>
<linearGradient id="paint0_linear_3060_406" x1="82.2325" y1="157.724" x2="349.15" y2="171.204" gradientUnits="userSpaceOnUse">
<stop stop-color="#0064E1"/>
<stop offset="0.4" stop-color="#0064E1"/>
<stop offset="0.83" stop-color="#0073EE"/>
<stop offset="1" stop-color="#0082FB"/>
</linearGradient>
<linearGradient id="paint1_linear_3060_406" x1="60.663" y1="187.381" x2="60.663" y2="88.9724" gradientUnits="userSpaceOnUse">
<stop stop-color="#0082FB"/>
<stop offset="1" stop-color="#0064E0"/>
</linearGradient>
</defs>
</svg>
