<svg width="123" height="117" viewBox="0 0 123 117" fill="none" xmlns="http://www.w3.org/2000/svg">
<path fill-rule="evenodd" clip-rule="evenodd" d="M61.37 8.24L80.43 0L90.88 17.79L111.15 22.32L109.15 42.85L122.88 58.43L109.2 73.87L111.15 94.55L91 99L80.43 116.87L61.51 108.62L42.45 116.87L32 99.08L11.73 94.55L13.73 74.01L0 58.43L13.68 42.99L11.73 22.32L31.88 17.87L42.45 0L61.37 8.24Z" fill="#007AF4"/>
<path d="M37.9197 65C31.8497 58.47 41.1697 48.74 47.9197 54.9C50.2997 57.07 53.7597 60.24 56.1597 62.39L74.6597 39.66C81.0997 33 91.2697 42.78 84.9097 49.48L61.6697 77.2C60.3986 78.5426 58.6557 79.3389 56.8087 79.421C54.9616 79.5031 53.1549 78.8645 51.7697 77.64C47.8297 73.89 42.0497 68.5 37.9197 65Z" fill="white"/>
</svg>
