<svg width="96" height="96" viewBox="0 0 96 96" fill="none" xmlns="http://www.w3.org/2000/svg">
<path d="M79.4345 18.8297L40.3162 5.49181C31.4206 2.45877 21.7506 7.21126 18.7176 16.1068L5.49181 54.8963C2.45877 63.7918 7.21126 73.4619 16.1068 76.4949L55.2251 89.8328C64.1206 92.8658 73.7907 88.1133 76.8237 79.2178L90.0494 40.4283C93.0825 31.5327 88.33 21.8627 79.4345 18.8297Z" fill="black"/>
<path d="M62.267 36.0469L67.2992 37.7627L52.0207 46.5809L59.1238 68.0893L48.9966 64.6363L44.6007 51.5624L31.9884 58.8372L26.9534 57.1204L43.2946 47.6895L36.4203 27.2341L46.8038 30.7745L50.7411 42.6984L62.267 36.0469ZM51.4126 62.0978L54.2018 63.0489L44.3161 33.1128L41.3235 32.0925L51.4126 62.0978Z" fill="white"/>
</svg>
